<?xml version="1.0" ?><!DOCTYPE svg  PUBLIC '-//W3C//DTD SVG 1.1//EN'  'http://www.w3.org/Graphics/SVG/1.1/DTD/svg11.dtd'><svg height="64px" version="1.1" viewBox="0 0 64 64" width="64px" xml:space="preserve" xmlns="http://www.w3.org/2000/svg" xmlns:xlink="http://www.w3.org/1999/xlink"><g id="grid"/><g id="Layer_2"/><g id="Layer_3"/><g id="Layer_4"/><g id="Layer_5"/><g id="Layer_6"/><g id="Layer_7"><g><g><g><path d="M53.069,22.616v0.013      c-0.093,0-0.172-0.013-0.263-0.013H11.194c-0.079,0-0.171,0.013-0.249,0.013v-0.013H3.882v16.177h56.236V22.616H53.069z       M10.945,23.774v-0.013h0.249C11.115,23.761,11.023,23.774,10.945,23.774z M53.069,23.774c-0.093,0-0.172-0.013-0.263-0.013      h0.263V23.774z" fill="none" stroke="currentColor" stroke-miterlimit="10" stroke-width="3"/></g><g><path d="M10.945,24.774h-1v-2.013h1.249v1h0.751l-0.751,0.01v0.99C11.077,24.77,11.008,24.774,10.945,24.774z"/></g><g><path d="M53.069,24.774c-0.074,0-0.142-0.004-0.21-0.01v-0.003h-0.053v-0.987l-0.737-0.013h0.737v-1h1.263v2L53.069,24.774z"/></g><g><path d="M10.945,24.774h-1v-2.013h1.249v1h0.751l-0.751,0.01v0.99C11.077,24.77,11.008,24.774,10.945,24.774z"/></g><g><path d="M53.069,24.774c-0.074,0-0.142-0.004-0.21-0.01v-0.003h-0.053v-0.987l-0.737-0.013h0.737v-1h1.263v2L53.069,24.774z"/></g><g><polygon points="57.752,22.616 55.752,22.616 55.752,16.542 8.249,16.542 8.249,22.616 6.249,22.616 6.249,14.542       57.752,14.542     "/></g><g><path d="M56.389,16.54H7.615l1.279-1.62c3.917-4.96,12.987-8.165,23.109-8.165c10.123,0,19.193,3.205,23.108,8.165L56.389,16.54      z M12.043,14.54h39.919c-4.135-3.52-11.769-5.785-19.959-5.785C23.813,8.755,16.18,11.021,12.043,14.54z"/></g><g><g><rect height="0.158" width="2" x="9.945" y="22.458"/></g><g><rect height="1.131" width="2" x="9.945" y="22.629"/></g><g><rect height="12.047" width="2" x="9.945" y="23.774"/></g><g><rect height="13.371" width="2" x="18.366" y="22.446"/></g><g><rect height="13.371" width="2" x="26.79" y="22.446"/></g><g><rect height="13.371" width="2" x="35.215" y="22.446"/></g><g><rect height="13.371" width="2" x="43.64" y="22.446"/></g><g><rect height="0.158" width="2" x="52.069" y="22.458"/></g><g><rect height="1.131" width="2" x="52.069" y="22.629"/></g><g><rect height="12.047" width="2" x="52.069" y="23.774"/></g></g></g><g><path d="M53.598,49.63H10.719L8.123,37.793h48.07L53.598,49.63z M12.328,47.63h39.66l1.719-7.837H10.609L12.328,47.63z"/></g><g><path d="M48.782,57.245H15.534V47.63h33.248V57.245z M17.534,55.245h29.248V49.63H17.534V55.245z"/></g></g></g><g id="Layer_8"/><g id="Layer_9"/><g id="Layer_10"/><g id="Layer_37"/><g id="Layer_11"/><g id="Layer_12"/><g id="Layer_13"/><g id="Layer_14"/><g id="Layer_16"/><g id="Layer_17"/><g id="Layer_18"/><g id="Layer_19"/><g id="Layer_20"/><g id="Layer_21"/><g id="Layer_22"/><g id="Layer_23"/><g id="Layer_24"/><g id="Layer_25"/></svg>